<svg fill="none" xmlns="http://www.w3.org/2000/svg" viewBox="-17 -25 259 162.93"> <path d="M133.18 -25C106.172 -25 83.4127 -8.87045 72.4157 13.9714C66.5508 9.91463 59.8235 6.99055 52.1813 6.99055C32.9356 6.99055 17.4604 22.2257 16.3058 41.1866C-2.98337 48.1601 -17 66.1966 -17 87.837C-17 115.438 5.4846 137.927 33.0902 137.927H195.886C221.295 137.927 242 117.228 242 91.8232C242 68.2499 223.927 49.444 201.056 46.7511C201.133 45.5309 201.299 44.3735 201.299 43.1089C201.299 5.5519 170.742 -25 133.18 -25ZM133.18 -14.64C165.143 -14.64 190.939 11.1503 190.939 43.1089C190.939 45.4663 190.742 47.8479 190.443 50.2719L189.724 56.0791H195.582C196.204 56.0791 196.3 56.069 195.886 56.069C215.697 56.0693 231.64 72.0166 231.64 91.8232C231.64 111.63 215.698 127.567 195.886 127.567H33.0902C11.0818 127.567 -6.64 109.84 -6.64 87.837C-6.64 69.5186 5.72009 54.224 22.5076 49.5839L26.4432 48.5014L26.3016 44.414C26.2757 43.6887 26.2409 43.325 26.2409 43.291C26.2409 28.9035 37.7878 17.3505 52.1813 17.3505C59.3759 17.3505 65.8349 20.2612 70.5339 24.9688L76.2501 30.6951L79.0627 23.1072C87.2088 1.09286 108.279 -14.64 133.18 -14.64ZM81.42 44.6872C78.6724 44.6872 76.0372 45.7787 74.0944 47.7216C72.1515 49.6644 71.06 52.2995 71.06 55.0472C71.06 57.7948 72.1515 60.4299 74.0944 62.3728C76.0372 64.3157 78.6724 65.4072 81.42 65.4072C84.1676 65.4072 86.8027 64.3157 88.7456 62.3728C90.6885 60.4299 91.78 57.7948 91.78 55.0472C91.78 52.2995 90.6885 49.6644 88.7456 47.7216C86.8027 45.7787 84.1676 44.6872 81.42 44.6872ZM143.58 44.6872C140.832 44.6872 138.197 45.7787 136.254 47.7216C134.311 49.6644 133.22 52.2995 133.22 55.0472C133.22 57.7948 134.311 60.4299 136.254 62.3728C138.197 64.3157 140.832 65.4072 143.58 65.4072C146.328 65.4072 148.963 64.3157 150.906 62.3728C152.849 60.4299 153.94 57.7948 153.94 55.0472C153.94 52.2995 152.849 49.6644 150.906 47.7216C148.963 45.7787 146.328 44.6872 143.58 44.6872ZM112.5 80.9472C81.3189 80.9472 61.9646 103.458 61.9646 103.458C61.4971 103.969 61.1367 104.568 60.9047 105.22C60.6727 105.873 60.5738 106.565 60.614 107.256C60.6541 107.948 60.8324 108.624 61.1384 109.245C61.4443 109.866 61.8717 110.42 62.3952 110.873C62.9187 111.326 63.5278 111.67 64.1864 111.884C64.845 112.097 65.5398 112.177 66.2297 112.118C66.9196 112.058 67.5906 111.861 68.203 111.538C68.8154 111.215 69.3569 110.772 69.7953 110.236C69.7953 110.236 86.3074 91.3072 112.5 91.3072C138.693 91.3072 155.205 110.236 155.205 110.236C155.643 110.772 156.185 111.215 156.797 111.538C157.409 111.861 158.08 112.058 158.77 112.118C159.46 112.177 160.155 112.097 160.814 111.884C161.472 111.67 162.081 111.326 162.605 110.873C163.128 110.42 163.556 109.866 163.862 109.245C164.168 108.624 164.346 107.948 164.386 107.256C164.426 106.565 164.327 105.873 164.095 105.22C163.863 104.568 163.503 103.969 163.035 103.458C163.035 103.458 143.681 80.9472 112.5 80.9472Z" fill="white"></path> </svg>