<svg xmlns="http://www.w3.org/2000/svg" xmlns:xlink="http://www.w3.org/1999/xlink" version="1.1" viewBox="15.5 19.9 32.8 35.67">     <defs fill="#000000">         <filter id="blur" width="200%" height="200%" fill="#000000">             <feGaussianBlur in="SourceAlpha" stdDeviation="3" fill="#000000"/>             <feOffset dx="0" dy="4" result="offsetblur" fill="#000000"/>             <feComponentTransfer fill="#000000">                 <feFuncA type="linear" slope="0.05" fill="#000000"/>             </feComponentTransfer>             <feMerge fill="#000000">                  <feMergeNode fill="#000000"/>                 <feMergeNode in="SourceGraphic" fill="#000000"/>              </feMerge>         </filter>     </defs>     <g filter="url(#blur)" id="rainy-6">         <g transform="translate(20,10)">             <g>                 <path d="M47.7,35.4c0-4.6-3.7-8.2-8.2-8.2c-1,0-1.9,0.2-2.8,0.5c-0.3-3.4-3.1-6.2-6.6-6.2c-3.7,0-6.7,3-6.7,6.7c0,0.8,0.2,1.6,0.4,2.3    c-0.3-0.1-0.7-0.1-1-0.1c-3.7,0-6.7,3-6.7,6.7c0,3.6,2.9,6.6,6.5,6.7l17.2,0C44.2,43.3,47.7,39.8,47.7,35.4z" fill="#57A0EE" stroke="#FFFFFF" stroke-linejoin="round" stroke-width="1.2" transform="translate(-20,-11)"/>             </g>         </g>         <g transform="translate(31,46), rotate(10)">             <line class="am-weather-rain-1" fill="none" stroke="#006eff" stroke-dasharray="4,4" stroke-linecap="round" stroke-width="2" transform="translate(-4,1)" x1="0" x2="0" y1="0" y2="8"/>             <line class="am-weather-rain-2" fill="none" stroke="#006eff" stroke-dasharray="4,4" stroke-linecap="round" stroke-width="2" transform="translate(0,-1)" x1="0" x2="0" y1="0" y2="8"/>             <line class="am-weather-rain-1" fill="none" stroke="#006eff" stroke-dasharray="4,4" stroke-linecap="round" stroke-width="2" transform="translate(4,0)" x1="0" x2="0" y1="0" y2="8"/>         </g>     </g> </svg>